<?xml version="1.0" encoding="UTF-8"?>
<svg xmlns="http://www.w3.org/2000/svg" xmlns:xlink="http://www.w3.org/1999/xlink" width="20px" height="px" viewBox="0 0 20 20" version="1.1">
<g id="surface1">
<path style="fill:none;stroke-width:3;stroke-linecap:butt;stroke-linejoin:miter;stroke:rgb(0%,0%,0%);stroke-opacity:1;stroke-miterlimit:4;" d="M 17.9375 54.8125 C 17.9 54.85 17.8375 54.85 17.8 54.8125 C 16.8 53.7 6.1125 41.575 6.1125 33.55 C 6.1125 23.6125 12.6125 21.3125 17.875 21.3125 C 22.7125 21.3125 28.925 23.9125 28.925 33.55 C 28.925 41.8375 18.875 53.725 17.9375 54.8125 Z M 17.9375 54.8125 " transform="matrix(0.3125,0,0,0.3125,0,0)"/>
<path style="fill:none;stroke-width:3;stroke-linecap:butt;stroke-linejoin:miter;stroke:rgb(0%,0%,0%);stroke-opacity:1;stroke-miterlimit:4;" d="M 22.275 31.375 C 22.275 34 20.1375 36.125 17.525 36.125 C 14.9 36.125 12.775 34 12.775 31.375 C 12.775 28.7625 14.9 26.625 17.525 26.625 C 20.1375 26.625 22.275 28.7625 22.275 31.375 Z M 22.275 31.375 " transform="matrix(0.3125,0,0,0.3125,0,0)"/>
<path style="fill:none;stroke-width:3;stroke-linecap:butt;stroke-linejoin:miter;stroke:rgb(0%,0%,0%);stroke-opacity:1;stroke-miterlimit:4;" d="M 49.575 34.775 C 49.5375 34.8125 49.475 34.8125 49.425 34.775 C 48.5625 33.775 40.2375 24.325 40.2375 18.025 C 40.2375 10.1875 45.3625 8.375 49.5125 8.375 C 53.325 8.375 58.225 10.375 58.225 18.025 C 58.225 24.525 50.4 33.8125 49.575 34.775 Z M 49.575 34.775 " transform="matrix(0.3125,0,0,0.3125,0,0)"/>
<path style="fill:none;stroke-width:3;stroke-linecap:butt;stroke-linejoin:miter;stroke:rgb(0%,0%,0%);stroke-opacity:1;stroke-miterlimit:4;" d="M 52.975 17.325 C 52.975 19.3875 51.3 21.075 49.225 21.075 C 47.1625 21.075 45.475 19.3875 45.475 17.325 C 45.475 15.25 47.1625 13.575 49.225 13.575 C 51.3 13.575 52.975 15.25 52.975 17.325 Z M 52.975 17.325 " transform="matrix(0.3125,0,0,0.3125,0,0)"/>
<path style="fill:none;stroke-width:3;stroke-linecap:butt;stroke-linejoin:miter;stroke:rgb(0%,0%,0%);stroke-opacity:1;stroke-miterlimit:4;" d="M 17.875 54.8875 C 19.15 55.275 20.45 55.575 21.775 55.775 " transform="matrix(0.3125,0,0,0.3125,0,0)"/>
<path style="fill:none;stroke-width:3;stroke-linecap:butt;stroke-linejoin:miter;stroke:rgb(0%,0%,0%);stroke-opacity:1;stroke-dasharray:7.8,7.8;stroke-miterlimit:4;" d="M 24.675 56.075 C 27.475 56.1875 30.525 55.7875 32.575 53.9875 C 38.375 48.9 35.475 42.7375 39.325 39.275 C 40.7875 38 42.45 36.9875 44.2625 36.275 " transform="matrix(0.3125,0,0,0.3125,0,0)"/>
<path style="fill:none;stroke-width:3;stroke-linecap:butt;stroke-linejoin:miter;stroke:rgb(0%,0%,0%);stroke-opacity:1;stroke-miterlimit:4;" d="M 45.625 35.8 C 46.8875 35.375 48.1875 35.05 49.5125 34.85 " transform="matrix(0.3125,0,0,0.3125,0,0)"/>
</g>
</svg>
