<!DOCTYPE svg PUBLIC "-//W3C//DTD SVG 1.1//EN" "http://www.w3.org/Graphics/SVG/1.1/DTD/svg11.dtd">
<!-- Uploaded to: SVG Repo, www.svgrepo.com, Transformed by: SVG Repo Mixer Tools -->
<svg width="800px" height="800px" viewBox="0 0 24 24" xmlns="http://www.w3.org/2000/svg" fill="#000000">
<g id="SVGRepo_bgCarrier" stroke-width="0"/>
<g id="SVGRepo_tracerCarrier" stroke-linecap="round" stroke-linejoin="round"/>
<g id="SVGRepo_iconCarrier"> <defs> <style>.cls-1{fill:#000000;}</style> </defs> <title/> <g id="Card"> <path class="cls-1" d="M3,22H21a1,1,0,0,0,0-2H4V3A1,1,0,0,0,2,3V21A1,1,0,0,0,3,22Z"/> <path class="cls-1" d="M7,18a1,1,0,0,0,.79-.39L11.36,13l2.16,1.85a1,1,0,0,0,.73.24,1,1,0,0,0,.68-.35l6.83-8.07a1,1,0,0,0-1.53-1.29l-6.18,7.3-2.2-1.88a1,1,0,0,0-1.44.15L6.19,16.4A1,1,0,0,0,7,18Z"/> </g> </g>
</svg>