<?xml version="1.0" encoding="UTF-8"?>
<svg xmlns="http://www.w3.org/2000/svg" xmlns:xlink="http://www.w3.org/1999/xlink" width="20px" height="20px" viewBox="0 0 20 20" version="1.1">
<g id="surface1">
<path style=" stroke:none;fill-rule:nonzero;fill:rgb(0%,0%,0%);fill-opacity:1;" d="M 2.5 18.332031 L 17.5 18.332031 C 17.960938 18.332031 18.332031 17.960938 18.332031 17.5 C 18.332031 17.039062 17.960938 16.667969 17.5 16.667969 L 3.332031 16.667969 L 3.332031 2.5 C 3.332031 2.039062 2.960938 1.667969 2.5 1.667969 C 2.039062 1.667969 1.667969 2.039062 1.667969 2.5 L 1.667969 17.5 C 1.667969 17.960938 2.039062 18.332031 2.5 18.332031 Z M 2.5 18.332031 "/>
<path style=" stroke:none;fill-rule:nonzero;fill:rgb(0%,0%,0%);fill-opacity:1;" d="M 5.832031 15 C 6.089844 15 6.335938 14.878906 6.492188 14.675781 L 9.464844 10.832031 L 11.265625 12.375 C 11.433594 12.519531 11.652344 12.59375 11.875 12.574219 C 12.09375 12.558594 12.300781 12.453125 12.441406 12.285156 L 18.132812 5.558594 C 18.429688 5.207031 18.386719 4.679688 18.035156 4.382812 C 17.679688 4.085938 17.15625 4.132812 16.859375 4.484375 L 11.707031 10.566406 L 9.875 9 C 9.703125 8.851562 9.476562 8.78125 9.25 8.804688 C 9.023438 8.828125 8.8125 8.945312 8.675781 9.125 L 5.160156 13.667969 C 4.96875 13.921875 4.9375 14.261719 5.082031 14.542969 C 5.226562 14.824219 5.515625 15.003906 5.832031 15 Z M 5.832031 15 "/>
</g>
</svg>
