<?xml version="1.0" encoding="UTF-8"?>
<svg xmlns="http://www.w3.org/2000/svg" xmlns:xlink="http://www.w3.org/1999/xlink" width="20px" height="20px" viewBox="0 0 20 20" version="1.1">
<g id="surface1">
<path style=" stroke:none;fill-rule:nonzero;fill:rgb(0%,0%,0%);fill-opacity:1;" d="M 2.332031 17.972656 C 1.941406 17.972656 1.632812 17.847656 1.410156 17.597656 C 1.203125 17.367188 1.089844 17.0625 1.074219 16.6875 L 1.070312 16.589844 L 1.070312 3.167969 C 1.070312 2.742188 1.183594 2.40625 1.410156 2.15625 C 1.617188 1.929688 1.894531 1.804688 2.242188 1.789062 L 2.332031 1.785156 L 11.90625 1.785156 C 12.289062 1.785156 12.59375 1.910156 12.820312 2.15625 C 13.027344 2.386719 13.140625 2.691406 13.15625 3.070312 L 13.160156 3.167969 L 13.160156 5.519531 L 17.675781 5.519531 C 18.03125 5.519531 18.316406 5.628906 18.539062 5.839844 L 18.589844 5.898438 C 18.796875 6.128906 18.910156 6.433594 18.925781 6.808594 L 18.929688 6.902344 L 18.929688 16.589844 C 18.929688 17.011719 18.816406 17.347656 18.589844 17.597656 C 18.382812 17.828125 18.105469 17.953125 17.761719 17.96875 L 17.675781 17.972656 Z M 13.160156 16.589844 C 13.160156 16.644531 13.15625 16.699219 13.152344 16.75 L 17.273438 16.75 C 17.421875 16.75 17.527344 16.714844 17.601562 16.644531 C 17.660156 16.582031 17.695312 16.492188 17.703125 16.371094 L 17.707031 16.308594 L 17.707031 7.183594 C 17.707031 7.03125 17.671875 6.921875 17.601562 6.851562 C 17.539062 6.789062 17.449219 6.753906 17.332031 6.746094 L 17.273438 6.742188 L 13.160156 6.742188 Z M 11.503906 3.007812 L 2.734375 3.007812 C 2.582031 3.007812 2.472656 3.042969 2.398438 3.113281 C 2.339844 3.175781 2.304688 3.265625 2.296875 3.386719 L 2.292969 3.449219 L 2.292969 16.308594 C 2.292969 16.460938 2.328125 16.574219 2.398438 16.644531 C 2.460938 16.703125 2.550781 16.738281 2.671875 16.746094 L 2.734375 16.75 L 4.472656 16.75 L 4.472656 14.511719 C 4.472656 14.210938 4.535156 13.984375 4.65625 13.828125 L 4.695312 13.785156 C 4.832031 13.644531 5.035156 13.570312 5.300781 13.554688 L 8.847656 13.554688 C 9.160156 13.554688 9.390625 13.632812 9.535156 13.785156 C 9.671875 13.925781 9.742188 14.136719 9.753906 14.421875 L 9.757812 14.511719 L 9.757812 16.75 L 11.503906 16.75 C 11.648438 16.75 11.757812 16.714844 11.828125 16.644531 C 11.890625 16.582031 11.925781 16.492188 11.933594 16.371094 L 11.9375 16.308594 L 11.9375 3.449219 C 11.9375 3.296875 11.902344 3.183594 11.828125 3.113281 C 11.757812 3.042969 11.648438 3.007812 11.503906 3.007812 Z M 8.519531 14.546875 L 5.710938 14.546875 C 5.5625 14.546875 5.484375 14.617188 5.46875 14.75 L 5.46875 16.75 L 8.761719 16.75 L 8.761719 14.792969 C 8.761719 14.644531 8.695312 14.5625 8.5625 14.550781 Z M 16.042969 13.796875 C 16.203125 13.796875 16.285156 13.867188 16.300781 14.015625 L 16.300781 15.238281 C 16.300781 15.398438 16.230469 15.484375 16.085938 15.496094 L 14.820312 15.496094 C 14.667969 15.496094 14.585938 15.425781 14.574219 15.28125 L 14.570312 15.238281 L 14.570312 14.054688 C 14.570312 13.898438 14.640625 13.8125 14.78125 13.796875 Z M 16.042969 10.898438 C 16.203125 10.898438 16.285156 10.96875 16.300781 11.113281 L 16.300781 12.339844 C 16.300781 12.496094 16.230469 12.582031 16.085938 12.59375 L 16.042969 12.597656 L 14.820312 12.597656 C 14.667969 12.597656 14.585938 12.523438 14.574219 12.378906 L 14.570312 12.339844 L 14.570312 11.15625 C 14.570312 10.996094 14.640625 10.910156 14.78125 10.898438 Z M 6.074219 10.28125 C 6.265625 10.28125 6.371094 10.371094 6.382812 10.546875 L 6.386719 10.59375 L 6.386719 12.027344 C 6.386719 12.21875 6.296875 12.324219 6.121094 12.335938 L 6.074219 12.339844 L 4.59375 12.339844 C 4.410156 12.339844 4.3125 12.25 4.300781 12.074219 L 4.296875 12.027344 L 4.296875 10.59375 C 4.296875 10.402344 4.382812 10.296875 4.550781 10.285156 L 4.59375 10.28125 Z M 9.628906 10.28125 C 9.820312 10.28125 9.921875 10.371094 9.9375 10.546875 L 9.9375 12.027344 C 9.9375 12.21875 9.851562 12.324219 9.675781 12.335938 L 9.628906 12.339844 L 8.15625 12.339844 C 7.96875 12.339844 7.867188 12.25 7.851562 12.074219 L 7.851562 10.59375 C 7.851562 10.402344 7.9375 10.296875 8.109375 10.285156 L 8.15625 10.28125 Z M 16.042969 7.996094 C 16.203125 7.996094 16.285156 8.070312 16.300781 8.214844 L 16.300781 9.4375 C 16.300781 9.597656 16.230469 9.683594 16.085938 9.695312 L 14.820312 9.695312 C 14.667969 9.695312 14.585938 9.625 14.574219 9.480469 L 14.570312 9.4375 L 14.570312 8.253906 C 14.570312 8.097656 14.640625 8.011719 14.78125 7.996094 Z M 6.074219 7.273438 C 6.265625 7.273438 6.371094 7.363281 6.382812 7.539062 L 6.386719 7.585938 L 6.386719 9.019531 C 6.386719 9.210938 6.296875 9.316406 6.121094 9.332031 L 4.59375 9.332031 C 4.410156 9.332031 4.3125 9.242188 4.300781 9.066406 L 4.296875 9.019531 L 4.296875 7.585938 C 4.296875 7.394531 4.382812 7.292969 4.550781 7.277344 L 4.59375 7.273438 Z M 9.628906 7.273438 C 9.820312 7.273438 9.921875 7.363281 9.9375 7.539062 L 9.9375 9.019531 C 9.9375 9.210938 9.851562 9.316406 9.675781 9.332031 L 8.15625 9.332031 C 7.96875 9.332031 7.867188 9.242188 7.851562 9.066406 L 7.851562 7.585938 C 7.851562 7.394531 7.9375 7.292969 8.109375 7.277344 L 8.15625 7.273438 Z M 6.074219 4.269531 C 6.265625 4.269531 6.371094 4.355469 6.382812 4.535156 L 6.386719 4.578125 L 6.386719 6.015625 C 6.386719 6.207031 6.296875 6.308594 6.121094 6.324219 L 4.59375 6.324219 C 4.410156 6.324219 4.3125 6.238281 4.300781 6.0625 L 4.296875 6.015625 L 4.296875 4.578125 C 4.296875 4.386719 4.382812 4.285156 4.550781 4.269531 Z M 9.628906 4.269531 C 9.820312 4.269531 9.921875 4.355469 9.9375 4.535156 L 9.9375 6.015625 C 9.9375 6.207031 9.851562 6.308594 9.675781 6.324219 L 8.15625 6.324219 C 7.96875 6.324219 7.867188 6.238281 7.851562 6.0625 L 7.851562 4.578125 C 7.851562 4.386719 7.9375 4.285156 8.109375 4.269531 Z M 9.628906 4.269531 "/>
</g>
</svg>
