<?xml version="1.0" encoding="UTF-8"?>
<svg xmlns="http://www.w3.org/2000/svg" xmlns:xlink="http://www.w3.org/1999/xlink" width="20px" height="px" viewBox="0 0 20 20" version="1.1">
<g id="surface1">
<path style=" stroke:none;fill-rule:evenodd;fill:rgb(0%,0%,0%);fill-opacity:1;" d="M 9.171875 1.667969 L 10.828125 1.667969 C 11.984375 1.667969 12.902344 1.667969 13.644531 1.726562 C 14.402344 1.792969 15.046875 1.921875 15.636719 2.230469 C 16.550781 2.703125 17.296875 3.449219 17.769531 4.363281 C 18.078125 4.953125 18.207031 5.597656 18.273438 6.355469 C 18.332031 7.097656 18.332031 8.015625 18.332031 9.171875 L 18.332031 10.828125 C 18.332031 11.984375 18.332031 12.902344 18.273438 13.644531 C 18.207031 14.402344 18.078125 15.046875 17.769531 15.636719 C 17.296875 16.550781 16.550781 17.296875 15.636719 17.769531 C 15.046875 18.078125 14.402344 18.207031 13.644531 18.273438 C 12.902344 18.332031 11.984375 18.332031 10.828125 18.332031 L 9.171875 18.332031 C 8.015625 18.332031 7.097656 18.332031 6.355469 18.273438 C 5.597656 18.207031 4.953125 18.078125 4.363281 17.769531 C 3.449219 17.296875 2.703125 16.550781 2.230469 15.636719 C 1.921875 15.046875 1.792969 14.402344 1.726562 13.644531 C 1.667969 12.902344 1.667969 11.984375 1.667969 10.828125 L 1.667969 9.171875 C 1.667969 8.015625 1.667969 7.097656 1.726562 6.355469 C 1.792969 5.597656 1.921875 4.953125 2.230469 4.363281 C 2.703125 3.449219 3.449219 2.703125 4.363281 2.230469 C 4.953125 1.921875 5.597656 1.792969 6.355469 1.726562 C 7.097656 1.667969 8.015625 1.667969 9.171875 1.667969 Z M 6.496094 3.390625 C 5.839844 3.445312 5.441406 3.546875 5.128906 3.707031 C 4.519531 4.023438 4.023438 4.519531 3.707031 5.128906 C 3.546875 5.441406 3.445312 5.839844 3.390625 6.496094 C 3.335938 7.160156 3.332031 8.007812 3.332031 9.207031 L 3.332031 10.792969 C 3.332031 11.992188 3.335938 12.839844 3.390625 13.503906 C 3.445312 14.160156 3.546875 14.558594 3.707031 14.871094 C 4.023438 15.480469 4.519531 15.976562 5.128906 16.292969 C 5.441406 16.453125 5.839844 16.554688 6.496094 16.609375 C 7.160156 16.664062 8.007812 16.667969 9.207031 16.667969 L 10.792969 16.667969 C 11.992188 16.667969 12.839844 16.664062 13.503906 16.609375 C 14.160156 16.554688 14.558594 16.453125 14.871094 16.292969 C 15.480469 15.976562 15.976562 15.480469 16.292969 14.871094 C 16.453125 14.558594 16.554688 14.160156 16.609375 13.503906 C 16.664062 12.839844 16.667969 11.992188 16.667969 10.792969 L 16.667969 9.207031 C 16.667969 8.007812 16.664062 7.160156 16.609375 6.496094 C 16.554688 5.839844 16.453125 5.441406 16.292969 5.128906 C 15.976562 4.519531 15.480469 4.023438 14.871094 3.707031 C 14.558594 3.546875 14.160156 3.445312 13.503906 3.390625 C 12.839844 3.335938 11.992188 3.332031 10.792969 3.332031 L 9.207031 3.332031 C 8.007812 3.332031 7.160156 3.335938 6.496094 3.390625 Z M 9.855469 5.632812 C 10.316406 5.632812 10.691406 6.003906 10.691406 6.464844 L 10.691406 10.605469 L 13.628906 11.722656 C 14.058594 11.882812 14.277344 12.367188 14.113281 12.796875 C 13.949219 13.226562 13.46875 13.441406 13.039062 13.277344 L 9.5625 11.957031 C 9.238281 11.835938 9.023438 11.523438 9.023438 11.179688 L 9.023438 6.464844 C 9.023438 6.003906 9.398438 5.632812 9.855469 5.632812 Z M 9.855469 5.632812 "/>
</g>
</svg>
